Coordinates
version=1
nRows=8
nColumns=36
inDegrees=yes

Units are S.I. units (second, meters, Newtons, ...)
If the header above contains a line with 'inDegrees', this indicates whether rotational values are in degrees (yes) or radians (no).

endheader
time	pelvis_tilt	pelvis_list	pelvis_rotation	pelvis_tx	pelvis_ty	pelvis_tz	hip_flexion_r	hip_adduction_r	hip_rotation_r	knee_angle_r	knee_angle_r_beta	ankle_angle_r	subtalar_angle_r	mtp_angle_r	hip_flexion_l	hip_adduction_l	hip_rotation_l	knee_angle_l	knee_angle_l_beta	ankle_angle_l	subtalar_angle_l	mtp_angle_l	lumbar_extension	lumbar_bending	lumbar_rotation	arm_flex_r	arm_add_r	arm_rot_r	elbow_flex_r	pro_sup_r	arm_flex_l	arm_add_l	arm_rot_l	elbow_flex_l	pro_sup_l
      2.50000000	    -29.17340322	      1.64336396	     -4.49316117	      1.32046583	      0.51552734	      0.02613584	    113.24737919	    -11.07666860	      9.59992902	    116.56257131	      2.03440065	     31.79346977	      0.19974011	     -7.49999987	    112.52655560	    -11.25145624	      9.15895624	    116.74379463	      2.03756360	     25.65520640	     -1.15639857	     -7.49999987	    -40.11557956	     -1.50944611	      4.92679768	     92.34400040	    -14.25926149	     16.22952452	    125.43081568	     98.82682609	     93.71987402	    -14.86952754	     29.41067662	    112.74913078	     91.09667508
      2.51666670	    -29.91386516	      1.55408659	     -4.52593170	      1.31754685	      0.50899933	      0.03010078	    114.80020531	    -11.86790105	      9.55299863	    117.53418755	      2.05135856	     32.15575200	      1.57074240	     -7.49999987	    114.30351471	    -11.75288414	      9.63756521	    117.84660057	      2.05681119	     25.89076801	      0.43196945	     -7.49999987	    -41.09786407	     -1.27344321	      5.40101638	     93.38845098	    -14.29311746	     16.13903933	    124.96824108	     98.72335171	     94.61320216	    -14.88271075	     30.21438544	    112.18091232	     91.42460881
      2.53333330	    -30.26596473	      1.52389947	     -4.64129470	      1.32465040	      0.50607274	      0.02696709	    115.59999302	    -12.52109080	      9.56191914	    118.18726469	      2.06275690	     32.54187473	      3.10692229	     -7.49999987	    115.15444515	    -12.30090321	     10.00357828	    118.65018397	      2.07083637	     26.44459010	      2.27949281	     -7.49999987	    -41.84136019	     -1.73246601	      6.30984210	     93.13818218	    -16.32507413	     15.38527684	    127.26737596	     97.31943265	     95.52739831	    -12.60381619	     31.81430726	    111.50940477	     94.32018578
      2.55000000	    -30.74482200	      1.49069098	     -4.72762652	      1.33066792	      0.50635705	      0.03109804	    115.98771081	    -12.79428938	      9.59052249	    118.48633686	      2.06797670	     32.73546015	      4.05493779	     -7.49999987	    115.62027540	    -12.72852915	     10.32176063	    119.02483626	      2.07737528	     26.89663494	      3.47291585	     -7.49999987	    -41.83634995	     -1.95536990	      6.78155866	     92.97199242	    -16.91125747	     14.92241355	    129.26069445	     96.35423909	     95.61023288	    -11.02731024	     31.54583471	    111.82935549	     95.50268991
      2.56666670	    -31.26503950	      1.50682533	     -4.77694763	      1.32612315	      0.50531469	      0.02658586	    116.24030034	    -13.03692147	      9.50689814	    118.33218098	      2.06528617	     32.81890704	      4.63281642	     -7.49999987	    115.93765701	    -12.90279003	     10.31479502	    118.96081208	      2.07625785	     26.94136312	      4.06152321	     -7.49999987	    -41.35541193	     -1.79735836	      6.46008002	     93.71746355	    -16.41840967	     14.90899634	    129.50426744	     96.29562503	     96.91934607	     -9.98811095	     31.40114348	    111.84634362	     95.56158438
      2.58333330	    -31.37506744	      1.53381917	     -4.58174398	      1.32092006	      0.50777224	      0.02224673	    115.89090477	    -13.25783136	      9.56307750	    117.76597400	      2.05540399	     33.24091694	      5.60253051	     -7.49999987	    115.68501481	    -12.61527035	      9.97099016	    118.53931427	      2.06890133	     26.68579903	      4.54611557	     -7.49999987	    -41.41526075	     -2.06779085	      7.55463893	     96.44504119	    -19.13255636	     14.15148533	    131.74187169	     95.45791385	    101.18000410	     -5.35948379	     31.91395058	    109.15109955	     96.57237475
      2.60000000	    -31.78547917	      1.39868765	     -4.38228882	      1.32144793	      0.51370029	      0.02072314	    115.52542498	    -13.24783867	      9.32531935	    116.86883911	      2.03974604	     33.36013056	      5.89815993	     -7.49999987	    115.32233839	    -11.96972053	      9.62341921	    117.78240408	      2.05569075	     26.33884381	      4.39894166	     -7.49999987	    -41.07075493	     -1.90854460	      7.81785538	     99.57265349	    -19.73404988	     14.81744026	    132.61927356	     90.05035153	    103.80600015	     -3.45103920	     31.69964281	    108.22322617	     98.53479770
      2.61666670	    -32.22479135	      1.32111791	     -4.34844812	      1.33208696	      0.53219178	      0.02192428	    114.17923328	    -12.98419335	      8.88622927	    115.18478212	      2.01035370	     33.61742579	      6.01960359	     -7.49999987	    114.06933936	    -11.28273650	      9.34037004	    116.27154217	      2.02932124	     26.09699783	      3.93199665	     -7.49999987	    -40.41450106	     -1.61664240	      8.04599640	    101.29908735	    -19.25554901	     17.26669156	    132.46996250	     87.69909621	    104.21888236	     -3.32812425	     31.07250420	    109.46871772	     95.44583974
